<svg xmlns="http://www.w3.org/2000/svg" width="24" height="24" viewBox="0 0 24 24">
  <g id="Layer_2" data-name="Layer 2" transform="translate(0.093 -0.286)">
    <g id="search" transform="translate(-0.093 0.286)">
      <rect id="Rectangle_8837" data-name="Rectangle 8837" width="24" height="24" transform="translate(0 0)" opacity="0"/>
      <path id="Path_22769" data-name="Path 22769" d="M19.265,17.961l-3.123-3.113a7.274,7.274,0,0,0,1.552-4.5,7.347,7.347,0,1,0-7.347,7.347,7.274,7.274,0,0,0,4.5-1.552l3.113,3.123a.922.922,0,1,0,1.3-1.3ZM4.837,10.347a5.511,5.511,0,1,1,5.511,5.511,5.511,5.511,0,0,1-5.511-5.511Z" transform="translate(0.669 0.736)"/>
    </g>
  </g>
</svg>
